<svg xmlns="http://www.w3.org/2000/svg" viewBox="0 0 1200 780" role="img" aria-labelledby="title desc">
  <title id="title">Jyoti Suppliers</title>
  <desc id="desc">Jyoti Suppliers logo</desc>
  <defs>
    <linearGradient id="blue" x1="0" y1="0" x2="1" y2="1"><stop stop-color="#0d3768"/><stop offset="1" stop-color="#062756"/></linearGradient>
    <linearGradient id="orange" x1="0" y1="0" x2="1" y2="1"><stop stop-color="#ff8508"/><stop offset="1" stop-color="#f26308"/></linearGradient>
  </defs>
  <g transform="translate(0 10)">
    <path fill="url(#blue)" d="M280 240 600 20l210 145-65 46-145-101-210 150H280z"/>
    <path fill="url(#orange)" d="M810 165 920 240H808L665 140l58-40z"/>
    <g fill="url(#orange)"><rect x="568" y="154" width="28" height="28"/><rect x="604" y="154" width="28" height="28"/><rect x="568" y="190" width="28" height="28"/><rect x="604" y="190" width="28" height="28"/></g>
    <path fill="url(#blue)" d="M392 252h145c-29 12-33 29-33 58v153c0 68-36 104-105 104h-85v-61h68c38 0 55-17 55-56V313c0-33-8-50-45-61z"/>
    <path fill="url(#orange)" d="M635 259h285l-30 59H735c-30 0-48 17-48 45 0 29 18 45 51 45h89c61 0 94 29 94 77 0 52-37 82-100 82H636l31-60h147c29 0 44-11 44-30 0-20-15-31-45-31h-84c-65 0-105-37-105-92 0-59 41-95 111-95z"/>
    <text x="102" y="730" fill="url(#blue)" font-family="Arial, Helvetica, sans-serif" font-size="112" font-weight="800" letter-spacing="5">JYOTI</text>
    <text x="532" y="730" fill="url(#orange)" font-family="Arial, Helvetica, sans-serif" font-size="112" font-weight="800" letter-spacing="2">SUPPLIERS</text>
  </g>
</svg>
